<svg id="visual" viewBox="0 0 900 300" width="900" height="300" xmlns="http://www.w3.org/2000/svg" xmlns:xlink="http://www.w3.org/1999/xlink" version="1.1"><rect x="0" y="0" width="900" height="300" fill="#001220"></rect><path d="M0 162L18.8 160.5C37.7 159 75.3 156 112.8 153.5C150.3 151 187.7 149 225.2 141.2C262.7 133.3 300.3 119.7 337.8 114.2C375.3 108.7 412.7 111.3 450.2 112.7C487.7 114 525.3 114 562.8 113.5C600.3 113 637.7 112 675.2 118.3C712.7 124.7 750.3 138.3 787.8 142.7C825.3 147 862.7 142 881.3 139.5L900 137L900 0L881.3 0C862.7 0 825.3 0 787.8 0C750.3 0 712.7 0 675.2 0C637.7 0 600.3 0 562.8 0C525.3 0 487.7 0 450.2 0C412.7 0 375.3 0 337.8 0C300.3 0 262.7 0 225.2 0C187.7 0 150.3 0 112.8 0C75.3 0 37.7 0 18.8 0L0 0Z" fill="#ffa096"></path><path d="M0 97L18.8 95.3C37.7 93.7 75.3 90.3 112.8 86.5C150.3 82.7 187.7 78.3 225.2 77C262.7 75.7 300.3 77.3 337.8 82.7C375.3 88 412.7 97 450.2 104.7C487.7 112.3 525.3 118.7 562.8 114.5C600.3 110.3 637.7 95.7 675.2 92.5C712.7 89.3 750.3 97.7 787.8 97.2C825.3 96.7 862.7 87.3 881.3 82.7L900 78L900 0L881.3 0C862.7 0 825.3 0 787.8 0C750.3 0 712.7 0 675.2 0C637.7 0 600.3 0 562.8 0C525.3 0 487.7 0 450.2 0C412.7 0 375.3 0 337.8 0C300.3 0 262.7 0 225.2 0C187.7 0 150.3 0 112.8 0C75.3 0 37.7 0 18.8 0L0 0Z" fill="#fc8277"></path><path d="M0 53L18.8 56.3C37.7 59.7 75.3 66.3 112.8 68.7C150.3 71 187.7 69 225.2 70.3C262.7 71.7 300.3 76.3 337.8 74.8C375.3 73.3 412.7 65.7 450.2 64.8C487.7 64 525.3 70 562.8 68.3C600.3 66.7 637.7 57.3 675.2 58.5C712.7 59.7 750.3 71.3 787.8 74.7C825.3 78 862.7 73 881.3 70.5L900 68L900 0L881.3 0C862.7 0 825.3 0 787.8 0C750.3 0 712.7 0 675.2 0C637.7 0 600.3 0 562.8 0C525.3 0 487.7 0 450.2 0C412.7 0 375.3 0 337.8 0C300.3 0 262.7 0 225.2 0C187.7 0 150.3 0 112.8 0C75.3 0 37.7 0 18.8 0L0 0Z" fill="#e6665c"></path><path d="M0 55L18.8 52.7C37.7 50.3 75.3 45.7 112.8 45C150.3 44.3 187.7 47.7 225.2 45.5C262.7 43.3 300.3 35.7 337.8 33C375.3 30.3 412.7 32.7 450.2 34.8C487.7 37 525.3 39 562.8 39.3C600.3 39.7 637.7 38.3 675.2 36.8C712.7 35.3 750.3 33.7 787.8 37.2C825.3 40.7 862.7 49.3 881.3 53.7L900 58L900 0L881.3 0C862.7 0 825.3 0 787.8 0C750.3 0 712.7 0 675.2 0C637.7 0 600.3 0 562.8 0C525.3 0 487.7 0 450.2 0C412.7 0 375.3 0 337.8 0C300.3 0 262.7 0 225.2 0C187.7 0 150.3 0 112.8 0C75.3 0 37.7 0 18.8 0L0 0Z" fill="#c04e45"></path></svg>