<svg id="visual" viewBox="0 0 900 300" width="900" height="300" xmlns="http://www.w3.org/2000/svg" xmlns:xlink="http://www.w3.org/1999/xlink" version="1.1"><rect x="0" y="0" width="900" height="300" fill="#001220"></rect><path d="M0 165L18.8 166C37.7 167 75.3 169 112.8 158.7C150.3 148.3 187.7 125.7 225.2 121.5C262.7 117.3 300.3 131.7 337.8 136.7C375.3 141.7 412.7 137.3 450.2 130.5C487.7 123.7 525.3 114.3 562.8 119.7C600.3 125 637.7 145 675.2 155.2C712.7 165.3 750.3 165.7 787.8 157.7C825.3 149.7 862.7 133.3 881.3 125.2L900 117L900 301L881.3 301C862.7 301 825.3 301 787.8 301C750.3 301 712.7 301 675.2 301C637.7 301 600.3 301 562.8 301C525.3 301 487.7 301 450.2 301C412.7 301 375.3 301 337.8 301C300.3 301 262.7 301 225.2 301C187.7 301 150.3 301 112.8 301C75.3 301 37.7 301 18.8 301L0 301Z" fill="#ffa096"></path><path d="M0 207L18.8 206.7C37.7 206.3 75.3 205.7 112.8 197.8C150.3 190 187.7 175 225.2 170.7C262.7 166.3 300.3 172.7 337.8 170.5C375.3 168.3 412.7 157.7 450.2 154.8C487.7 152 525.3 157 562.8 162C600.3 167 637.7 172 675.2 168.8C712.7 165.7 750.3 154.3 787.8 159.7C825.3 165 862.7 187 881.3 198L900 209L900 301L881.3 301C862.7 301 825.3 301 787.8 301C750.3 301 712.7 301 675.2 301C637.7 301 600.3 301 562.8 301C525.3 301 487.7 301 450.2 301C412.7 301 375.3 301 337.8 301C300.3 301 262.7 301 225.2 301C187.7 301 150.3 301 112.8 301C75.3 301 37.7 301 18.8 301L0 301Z" fill="#fc8277"></path><path d="M0 189L18.8 196.7C37.7 204.3 75.3 219.7 112.8 222.3C150.3 225 187.7 215 225.2 211.5C262.7 208 300.3 211 337.8 208.8C375.3 206.7 412.7 199.3 450.2 194.5C487.7 189.7 525.3 187.3 562.8 193.2C600.3 199 637.7 213 675.2 216.5C712.7 220 750.3 213 787.8 214.5C825.3 216 862.7 226 881.3 231L900 236L900 301L881.3 301C862.7 301 825.3 301 787.8 301C750.3 301 712.7 301 675.2 301C637.7 301 600.3 301 562.8 301C525.3 301 487.7 301 450.2 301C412.7 301 375.3 301 337.8 301C300.3 301 262.7 301 225.2 301C187.7 301 150.3 301 112.8 301C75.3 301 37.7 301 18.8 301L0 301Z" fill="#e6665c"></path><path d="M0 263L18.8 264.8C37.7 266.7 75.3 270.3 112.8 268C150.3 265.7 187.7 257.3 225.2 255C262.7 252.7 300.3 256.3 337.8 254.2C375.3 252 412.7 244 450.2 241C487.7 238 525.3 240 562.8 241C600.3 242 637.7 242 675.2 243.5C712.7 245 750.3 248 787.8 247.7C825.3 247.3 862.7 243.7 881.3 241.8L900 240L900 301L881.3 301C862.7 301 825.3 301 787.8 301C750.3 301 712.7 301 675.2 301C637.7 301 600.3 301 562.8 301C525.3 301 487.7 301 450.2 301C412.7 301 375.3 301 337.8 301C300.3 301 262.7 301 225.2 301C187.7 301 150.3 301 112.8 301C75.3 301 37.7 301 18.8 301L0 301Z" fill="#c04e45"></path></svg>