<svg id="visual" viewBox="0 0 900 300" width="900" height="300" xmlns="http://www.w3.org/2000/svg" xmlns:xlink="http://www.w3.org/1999/xlink" version="1.1"><rect x="0" y="0" width="900" height="300" fill="#001220"></rect><path d="M0 228L18.8 226.7C37.7 225.3 75.3 222.7 112.8 225C150.3 227.3 187.7 234.7 225.2 236.2C262.7 237.7 300.3 233.3 337.8 229.7C375.3 226 412.7 223 450.2 218.8C487.7 214.7 525.3 209.3 562.8 211.7C600.3 214 637.7 224 675.2 228.8C712.7 233.7 750.3 233.3 787.8 232.3C825.3 231.3 862.7 229.7 881.3 228.8L900 228L900 301L881.3 301C862.7 301 825.3 301 787.8 301C750.3 301 712.7 301 675.2 301C637.7 301 600.3 301 562.8 301C525.3 301 487.7 301 450.2 301C412.7 301 375.3 301 337.8 301C300.3 301 262.7 301 225.2 301C187.7 301 150.3 301 112.8 301C75.3 301 37.7 301 18.8 301L0 301Z" fill="#ffa096"></path><path d="M0 252L18.8 250C37.7 248 75.3 244 112.8 241.8C150.3 239.7 187.7 239.3 225.2 236.5C262.7 233.7 300.3 228.3 337.8 231.3C375.3 234.3 412.7 245.7 450.2 246C487.7 246.3 525.3 235.7 562.8 234.2C600.3 232.7 637.7 240.3 675.2 241.3C712.7 242.3 750.3 236.7 787.8 237.5C825.3 238.3 862.7 245.7 881.3 249.3L900 253L900 301L881.3 301C862.7 301 825.3 301 787.8 301C750.3 301 712.7 301 675.2 301C637.7 301 600.3 301 562.8 301C525.3 301 487.7 301 450.2 301C412.7 301 375.3 301 337.8 301C300.3 301 262.7 301 225.2 301C187.7 301 150.3 301 112.8 301C75.3 301 37.7 301 18.8 301L0 301Z" fill="#fc8277"></path><path d="M0 263L18.8 260.7C37.7 258.3 75.3 253.7 112.8 253.7C150.3 253.7 187.7 258.3 225.2 257.8C262.7 257.3 300.3 251.7 337.8 249.7C375.3 247.7 412.7 249.3 450.2 251.8C487.7 254.3 525.3 257.7 562.8 256.7C600.3 255.7 637.7 250.3 675.2 247.3C712.7 244.3 750.3 243.7 787.8 243.5C825.3 243.3 862.7 243.7 881.3 243.8L900 244L900 301L881.3 301C862.7 301 825.3 301 787.8 301C750.3 301 712.7 301 675.2 301C637.7 301 600.3 301 562.8 301C525.3 301 487.7 301 450.2 301C412.7 301 375.3 301 337.8 301C300.3 301 262.7 301 225.2 301C187.7 301 150.3 301 112.8 301C75.3 301 37.7 301 18.8 301L0 301Z" fill="#e6665c"></path><path d="M0 279L18.8 280.2C37.7 281.3 75.3 283.7 112.8 282.2C150.3 280.7 187.7 275.3 225.2 273.2C262.7 271 300.3 272 337.8 274.2C375.3 276.3 412.7 279.7 450.2 280.5C487.7 281.3 525.3 279.7 562.8 278.8C600.3 278 637.7 278 675.2 275.7C712.7 273.3 750.3 268.7 787.8 266.3C825.3 264 862.7 264 881.3 264L900 264L900 301L881.3 301C862.7 301 825.3 301 787.8 301C750.3 301 712.7 301 675.2 301C637.7 301 600.3 301 562.8 301C525.3 301 487.7 301 450.2 301C412.7 301 375.3 301 337.8 301C300.3 301 262.7 301 225.2 301C187.7 301 150.3 301 112.8 301C75.3 301 37.7 301 18.8 301L0 301Z" fill="#c04e45"></path></svg>