<svg id="visual" viewBox="0 0 900 300" width="900" height="300" xmlns="http://www.w3.org/2000/svg" xmlns:xlink="http://www.w3.org/1999/xlink" version="1.1"><rect x="0" y="0" width="900" height="300" fill="#001220"></rect><path d="M0 88L18.8 95.5C37.7 103 75.3 118 112.8 116.8C150.3 115.7 187.7 98.3 225.2 93.3C262.7 88.3 300.3 95.7 337.8 97.2C375.3 98.7 412.7 94.3 450.2 90.3C487.7 86.3 525.3 82.7 562.8 85.2C600.3 87.7 637.7 96.3 675.2 106.8C712.7 117.3 750.3 129.7 787.8 132.3C825.3 135 862.7 128 881.3 124.5L900 121L900 0L881.3 0C862.7 0 825.3 0 787.8 0C750.3 0 712.7 0 675.2 0C637.7 0 600.3 0 562.8 0C525.3 0 487.7 0 450.2 0C412.7 0 375.3 0 337.8 0C300.3 0 262.7 0 225.2 0C187.7 0 150.3 0 112.8 0C75.3 0 37.7 0 18.8 0L0 0Z" fill="#ffa096"></path><path d="M0 94L18.8 93.2C37.7 92.3 75.3 90.7 112.8 91.2C150.3 91.7 187.7 94.3 225.2 96.8C262.7 99.3 300.3 101.7 337.8 101.5C375.3 101.3 412.7 98.7 450.2 90C487.7 81.3 525.3 66.7 562.8 61.3C600.3 56 637.7 60 675.2 67.8C712.7 75.7 750.3 87.3 787.8 91.7C825.3 96 862.7 93 881.3 91.5L900 90L900 0L881.3 0C862.7 0 825.3 0 787.8 0C750.3 0 712.7 0 675.2 0C637.7 0 600.3 0 562.8 0C525.3 0 487.7 0 450.2 0C412.7 0 375.3 0 337.8 0C300.3 0 262.7 0 225.2 0C187.7 0 150.3 0 112.8 0C75.3 0 37.7 0 18.8 0L0 0Z" fill="#fa7268"></path><path d="M0 35L18.8 40C37.7 45 75.3 55 112.8 56C150.3 57 187.7 49 225.2 47.8C262.7 46.7 300.3 52.3 337.8 54.3C375.3 56.3 412.7 54.7 450.2 49.5C487.7 44.3 525.3 35.7 562.8 35C600.3 34.3 637.7 41.7 675.2 44.5C712.7 47.3 750.3 45.7 787.8 47.2C825.3 48.7 862.7 53.3 881.3 55.7L900 58L900 0L881.3 0C862.7 0 825.3 0 787.8 0C750.3 0 712.7 0 675.2 0C637.7 0 600.3 0 562.8 0C525.3 0 487.7 0 450.2 0C412.7 0 375.3 0 337.8 0C300.3 0 262.7 0 225.2 0C187.7 0 150.3 0 112.8 0C75.3 0 37.7 0 18.8 0L0 0Z" fill="#c04e45"></path></svg>