<svg id="visual" viewBox="0 0 900 600" width="900" height="600" xmlns="http://www.w3.org/2000/svg" xmlns:xlink="http://www.w3.org/1999/xlink" version="1.1"><rect x="0" y="0" width="900" height="600" fill="#0b182b"></rect><path d="M0 392L15 381C30 370 60 348 90 338.3C120 328.7 150 331.3 180 343.7C210 356 240 378 270 375.3C300 372.7 330 345.3 360 338.2C390 331 420 344 450 356.8C480 369.7 510 382.3 540 389.5C570 396.7 600 398.3 630 385.3C660 372.3 690 344.7 720 338.5C750 332.3 780 347.7 810 353.8C840 360 870 357 885 355.5L900 354L900 601L885 601C870 601 840 601 810 601C780 601 750 601 720 601C690 601 660 601 630 601C600 601 570 601 540 601C510 601 480 601 450 601C420 601 390 601 360 601C330 601 300 601 270 601C240 601 210 601 180 601C150 601 120 601 90 601C60 601 30 601 15 601L0 601Z" fill="#fd8a84"></path><path d="M0 409L15 411.3C30 413.7 60 418.3 90 420.5C120 422.7 150 422.3 180 426.3C210 430.3 240 438.7 270 437C300 435.3 330 423.7 360 416.3C390 409 420 406 450 411.8C480 417.7 510 432.3 540 431.8C570 431.3 600 415.7 630 412.8C660 410 690 420 720 424.2C750 428.3 780 426.7 810 417.8C840 409 870 393 885 385L900 377L900 601L885 601C870 601 840 601 810 601C780 601 750 601 720 601C690 601 660 601 630 601C600 601 570 601 540 601C510 601 480 601 450 601C420 601 390 601 360 601C330 601 300 601 270 601C240 601 210 601 180 601C150 601 120 601 90 601C60 601 30 601 15 601L0 601Z" fill="#e46f68"></path><path d="M0 497L15 495.2C30 493.3 60 489.7 90 481.3C120 473 150 460 180 456C210 452 240 457 270 464.8C300 472.7 330 483.3 360 479.7C390 476 420 458 450 452.2C480 446.3 510 452.7 540 454C570 455.3 600 451.7 630 448.8C660 446 690 444 720 452.8C750 461.7 780 481.3 810 492.3C840 503.3 870 505.7 885 506.8L900 508L900 601L885 601C870 601 840 601 810 601C780 601 750 601 720 601C690 601 660 601 630 601C600 601 570 601 540 601C510 601 480 601 450 601C420 601 390 601 360 601C330 601 300 601 270 601C240 601 210 601 180 601C150 601 120 601 90 601C60 601 30 601 15 601L0 601Z" fill="#ca554e"></path><path d="M0 525L15 524C30 523 60 521 90 523.5C120 526 150 533 180 531.3C210 529.7 240 519.3 270 516.8C300 514.3 330 519.7 360 522.2C390 524.7 420 524.3 450 523.8C480 523.3 510 522.7 540 525.2C570 527.7 600 533.3 630 538.5C660 543.7 690 548.3 720 550.5C750 552.7 780 552.3 810 550C840 547.7 870 543.3 885 541.2L900 539L900 601L885 601C870 601 840 601 810 601C780 601 750 601 720 601C690 601 660 601 630 601C600 601 570 601 540 601C510 601 480 601 450 601C420 601 390 601 360 601C330 601 300 601 270 601C240 601 210 601 180 601C150 601 120 601 90 601C60 601 30 601 15 601L0 601Z" fill="#b03935"></path></svg>