<svg id="visual" viewBox="0 0 900 300" width="900" height="300" xmlns="http://www.w3.org/2000/svg" xmlns:xlink="http://www.w3.org/1999/xlink" version="1.1"><rect x="0" y="0" width="900" height="300" fill="#001220"></rect><path d="M0 177L18.8 181.3C37.7 185.7 75.3 194.3 112.8 195.3C150.3 196.3 187.7 189.7 225.2 191.7C262.7 193.7 300.3 204.3 337.8 203.2C375.3 202 412.7 189 450.2 184C487.7 179 525.3 182 562.8 182C600.3 182 637.7 179 675.2 183.3C712.7 187.7 750.3 199.3 787.8 199.5C825.3 199.7 862.7 188.3 881.3 182.7L900 177L900 301L881.3 301C862.7 301 825.3 301 787.8 301C750.3 301 712.7 301 675.2 301C637.7 301 600.3 301 562.8 301C525.3 301 487.7 301 450.2 301C412.7 301 375.3 301 337.8 301C300.3 301 262.7 301 225.2 301C187.7 301 150.3 301 112.8 301C75.3 301 37.7 301 18.8 301L0 301Z" fill="#ffa096"></path><path d="M0 220L18.8 217C37.7 214 75.3 208 112.8 203.5C150.3 199 187.7 196 225.2 195.7C262.7 195.3 300.3 197.7 337.8 203.7C375.3 209.7 412.7 219.3 450.2 222C487.7 224.7 525.3 220.3 562.8 220.2C600.3 220 637.7 224 675.2 227C712.7 230 750.3 232 787.8 227.2C825.3 222.3 862.7 210.7 881.3 204.8L900 199L900 301L881.3 301C862.7 301 825.3 301 787.8 301C750.3 301 712.7 301 675.2 301C637.7 301 600.3 301 562.8 301C525.3 301 487.7 301 450.2 301C412.7 301 375.3 301 337.8 301C300.3 301 262.7 301 225.2 301C187.7 301 150.3 301 112.8 301C75.3 301 37.7 301 18.8 301L0 301Z" fill="#fe8e83"></path><path d="M0 213L18.8 218.7C37.7 224.3 75.3 235.7 112.8 240.2C150.3 244.7 187.7 242.3 225.2 241.5C262.7 240.7 300.3 241.3 337.8 242.5C375.3 243.7 412.7 245.3 450.2 243.3C487.7 241.3 525.3 235.7 562.8 233.3C600.3 231 637.7 232 675.2 234.8C712.7 237.7 750.3 242.3 787.8 240.3C825.3 238.3 862.7 229.7 881.3 225.3L900 221L900 301L881.3 301C862.7 301 825.3 301 787.8 301C750.3 301 712.7 301 675.2 301C637.7 301 600.3 301 562.8 301C525.3 301 487.7 301 450.2 301C412.7 301 375.3 301 337.8 301C300.3 301 262.7 301 225.2 301C187.7 301 150.3 301 112.8 301C75.3 301 37.7 301 18.8 301L0 301Z" fill="#fb7c71"></path><path d="M0 237L18.8 237.5C37.7 238 75.3 239 112.8 241.5C150.3 244 187.7 248 225.2 248.3C262.7 248.7 300.3 245.3 337.8 244.8C375.3 244.3 412.7 246.7 450.2 247.7C487.7 248.7 525.3 248.3 562.8 246.5C600.3 244.7 637.7 241.3 675.2 238.8C712.7 236.3 750.3 234.7 787.8 233.7C825.3 232.7 862.7 232.3 881.3 232.2L900 232L900 301L881.3 301C862.7 301 825.3 301 787.8 301C750.3 301 712.7 301 675.2 301C637.7 301 600.3 301 562.8 301C525.3 301 487.7 301 450.2 301C412.7 301 375.3 301 337.8 301C300.3 301 262.7 301 225.2 301C187.7 301 150.3 301 112.8 301C75.3 301 37.7 301 18.8 301L0 301Z" fill="#ee6b61"></path><path d="M0 262L18.8 262.2C37.7 262.3 75.3 262.7 112.8 263.7C150.3 264.7 187.7 266.3 225.2 266.7C262.7 267 300.3 266 337.8 263.7C375.3 261.3 412.7 257.7 450.2 257.7C487.7 257.7 525.3 261.3 562.8 262C600.3 262.7 637.7 260.3 675.2 260.7C712.7 261 750.3 264 787.8 265.2C825.3 266.3 862.7 265.7 881.3 265.3L900 265L900 301L881.3 301C862.7 301 825.3 301 787.8 301C750.3 301 712.7 301 675.2 301C637.7 301 600.3 301 562.8 301C525.3 301 487.7 301 450.2 301C412.7 301 375.3 301 337.8 301C300.3 301 262.7 301 225.2 301C187.7 301 150.3 301 112.8 301C75.3 301 37.7 301 18.8 301L0 301Z" fill="#d75c53"></path><path d="M0 285L18.8 282.7C37.7 280.3 75.3 275.7 112.8 273.3C150.3 271 187.7 271 225.2 271.2C262.7 271.3 300.3 271.7 337.8 274C375.3 276.3 412.7 280.7 450.2 281.2C487.7 281.7 525.3 278.3 562.8 278.8C600.3 279.3 637.7 283.7 675.2 283.3C712.7 283 750.3 278 787.8 277.5C825.3 277 862.7 281 881.3 283L900 285L900 301L881.3 301C862.7 301 825.3 301 787.8 301C750.3 301 712.7 301 675.2 301C637.7 301 600.3 301 562.8 301C525.3 301 487.7 301 450.2 301C412.7 301 375.3 301 337.8 301C300.3 301 262.7 301 225.2 301C187.7 301 150.3 301 112.8 301C75.3 301 37.7 301 18.8 301L0 301Z" fill="#c04e45"></path></svg>