<svg id="visual" viewBox="0 0 900 600" width="900" height="600" xmlns="http://www.w3.org/2000/svg" xmlns:xlink="http://www.w3.org/1999/xlink" version="1.1"><rect x="0" y="0" width="900" height="600" fill="#0b182b"></rect><path d="M0 149L15 159.8C30 170.7 60 192.3 90 192.5C120 192.7 150 171.3 180 160.3C210 149.3 240 148.7 270 161.8C300 175 330 202 360 201.5C390 201 420 173 450 159.8C480 146.7 510 148.3 540 150C570 151.7 600 153.3 630 158.3C660 163.3 690 171.7 720 184C750 196.3 780 212.7 810 217C840 221.3 870 213.7 885 209.8L900 206L900 0L885 0C870 0 840 0 810 0C780 0 750 0 720 0C690 0 660 0 630 0C600 0 570 0 540 0C510 0 480 0 450 0C420 0 390 0 360 0C330 0 300 0 270 0C240 0 210 0 180 0C150 0 120 0 90 0C60 0 30 0 15 0L0 0Z" fill="#fd8a84"></path><path d="M0 135L15 132.5C30 130 60 125 90 125.5C120 126 150 132 180 134.5C210 137 240 136 270 137C300 138 330 141 360 134.3C390 127.7 420 111.3 450 108.2C480 105 510 115 540 119.7C570 124.3 600 123.7 630 121.2C660 118.7 690 114.3 720 112.3C750 110.3 780 110.7 810 110.7C840 110.7 870 110.3 885 110.2L900 110L900 0L885 0C870 0 840 0 810 0C780 0 750 0 720 0C690 0 660 0 630 0C600 0 570 0 540 0C510 0 480 0 450 0C420 0 390 0 360 0C330 0 300 0 270 0C240 0 210 0 180 0C150 0 120 0 90 0C60 0 30 0 15 0L0 0Z" fill="#d7625b"></path><path d="M0 55L15 55.5C30 56 60 57 90 64.3C120 71.7 150 85.3 180 91.2C210 97 240 95 270 95C300 95 330 97 360 94.3C390 91.7 420 84.3 450 78.7C480 73 510 69 540 71.7C570 74.3 600 83.7 630 81.8C660 80 690 67 720 66.7C750 66.3 780 78.7 810 80.3C840 82 870 73 885 68.5L900 64L900 0L885 0C870 0 840 0 810 0C780 0 750 0 720 0C690 0 660 0 630 0C600 0 570 0 540 0C510 0 480 0 450 0C420 0 390 0 360 0C330 0 300 0 270 0C240 0 210 0 180 0C150 0 120 0 90 0C60 0 30 0 15 0L0 0Z" fill="#b03935"></path></svg>