<svg id="visual" viewBox="0 0 900 600" width="900" height="600" xmlns="http://www.w3.org/2000/svg" xmlns:xlink="http://www.w3.org/1999/xlink" version="1.1"><rect x="0" y="0" width="900" height="600" fill="#0b182b"></rect><path d="M0 265L15 279.2C30 293.3 60 321.7 90 328.8C120 336 150 322 180 308C210 294 240 280 270 287.7C300 295.3 330 324.7 360 324.2C390 323.7 420 293.3 450 295.2C480 297 510 331 540 332.8C570 334.7 600 304.3 630 296.8C660 289.3 690 304.7 720 318C750 331.3 780 342.7 810 343C840 343.3 870 332.7 885 327.3L900 322L900 601L885 601C870 601 840 601 810 601C780 601 750 601 720 601C690 601 660 601 630 601C600 601 570 601 540 601C510 601 480 601 450 601C420 601 390 601 360 601C330 601 300 601 270 601C240 601 210 601 180 601C150 601 120 601 90 601C60 601 30 601 15 601L0 601Z" fill="#fd8a84"></path><path d="M0 379L15 377.7C30 376.3 60 373.7 90 365C120 356.3 150 341.7 180 339.2C210 336.7 240 346.3 270 359C300 371.7 330 387.3 360 390C390 392.7 420 382.3 450 373.8C480 365.3 510 358.7 540 352.8C570 347 600 342 630 340C660 338 690 339 720 348.7C750 358.3 780 376.7 810 380.3C840 384 870 373 885 367.5L900 362L900 601L885 601C870 601 840 601 810 601C780 601 750 601 720 601C690 601 660 601 630 601C600 601 570 601 540 601C510 601 480 601 450 601C420 601 390 601 360 601C330 601 300 601 270 601C240 601 210 601 180 601C150 601 120 601 90 601C60 601 30 601 15 601L0 601Z" fill="#ee7a73"></path><path d="M0 373L15 373.8C30 374.7 60 376.3 90 386.8C120 397.3 150 416.7 180 418.7C210 420.7 240 405.3 270 396.2C300 387 330 384 360 382.2C390 380.3 420 379.7 450 390.5C480 401.3 510 423.7 540 421.7C570 419.7 600 393.3 630 385C660 376.7 690 386.3 720 386.7C750 387 780 378 810 377C840 376 870 383 885 386.5L900 390L900 601L885 601C870 601 840 601 810 601C780 601 750 601 720 601C690 601 660 601 630 601C600 601 570 601 540 601C510 601 480 601 450 601C420 601 390 601 360 601C330 601 300 601 270 601C240 601 210 601 180 601C150 601 120 601 90 601C60 601 30 601 15 601L0 601Z" fill="#df6a63"></path><path d="M0 480L15 478.5C30 477 60 474 90 463.7C120 453.3 150 435.7 180 434.5C210 433.3 240 448.7 270 455.2C300 461.7 330 459.3 360 459.5C390 459.7 420 462.3 450 459.7C480 457 510 449 540 448.3C570 447.7 600 454.3 630 459.8C660 465.3 690 469.7 720 473.2C750 476.7 780 479.3 810 480.7C840 482 870 482 885 482L900 482L900 601L885 601C870 601 840 601 810 601C780 601 750 601 720 601C690 601 660 601 630 601C600 601 570 601 540 601C510 601 480 601 450 601C420 601 390 601 360 601C330 601 300 601 270 601C240 601 210 601 180 601C150 601 120 601 90 601C60 601 30 601 15 601L0 601Z" fill="#cf5a53"></path><path d="M0 485L15 484.2C30 483.3 60 481.7 90 479C120 476.3 150 472.7 180 477C210 481.3 240 493.7 270 494C300 494.3 330 482.7 360 476.3C390 470 420 469 450 474.2C480 479.3 510 490.7 540 496C570 501.3 600 500.7 630 498.3C660 496 690 492 720 493.3C750 494.7 780 501.3 810 505.8C840 510.3 870 512.7 885 513.8L900 515L900 601L885 601C870 601 840 601 810 601C780 601 750 601 720 601C690 601 660 601 630 601C600 601 570 601 540 601C510 601 480 601 450 601C420 601 390 601 360 601C330 601 300 601 270 601C240 601 210 601 180 601C150 601 120 601 90 601C60 601 30 601 15 601L0 601Z" fill="#c04a44"></path><path d="M0 540L15 540C30 540 60 540 90 536.8C120 533.7 150 527.3 180 526.3C210 525.3 240 529.7 270 531.2C300 532.7 330 531.3 360 529.7C390 528 420 526 450 525.2C480 524.3 510 524.7 540 525.8C570 527 600 529 630 534.5C660 540 690 549 720 550.5C750 552 780 546 810 542.7C840 539.3 870 538.7 885 538.3L900 538L900 601L885 601C870 601 840 601 810 601C780 601 750 601 720 601C690 601 660 601 630 601C600 601 570 601 540 601C510 601 480 601 450 601C420 601 390 601 360 601C330 601 300 601 270 601C240 601 210 601 180 601C150 601 120 601 90 601C60 601 30 601 15 601L0 601Z" fill="#b03935"></path></svg>