<svg id="visual" viewBox="0 0 900 600" width="900" height="600" xmlns="http://www.w3.org/2000/svg" xmlns:xlink="http://www.w3.org/1999/xlink" version="1.1"><rect x="0" y="0" width="900" height="600" fill="#0b182b"></rect><path d="M0 426L15 424.3C30 422.7 60 419.3 90 415.2C120 411 150 406 180 400.3C210 394.7 240 388.3 270 392.2C300 396 330 410 360 418.3C390 426.7 420 429.3 450 425.7C480 422 510 412 540 405C570 398 600 394 630 400.7C660 407.3 690 424.7 720 426.5C750 428.3 780 414.7 810 409.2C840 403.7 870 406.3 885 407.7L900 409L900 601L885 601C870 601 840 601 810 601C780 601 750 601 720 601C690 601 660 601 630 601C600 601 570 601 540 601C510 601 480 601 450 601C420 601 390 601 360 601C330 601 300 601 270 601C240 601 210 601 180 601C150 601 120 601 90 601C60 601 30 601 15 601L0 601Z" fill="#fd8a84"></path><path d="M0 497L15 503.8C30 510.7 60 524.3 90 529C120 533.7 150 529.3 180 524.8C210 520.3 240 515.7 270 512.3C300 509 330 507 360 503.5C390 500 420 495 450 499.2C480 503.3 510 516.7 540 515.3C570 514 600 498 630 496.3C660 494.7 690 507.3 720 513.3C750 519.3 780 518.7 810 512.8C840 507 870 496 885 490.5L900 485L900 601L885 601C870 601 840 601 810 601C780 601 750 601 720 601C690 601 660 601 630 601C600 601 570 601 540 601C510 601 480 601 450 601C420 601 390 601 360 601C330 601 300 601 270 601C240 601 210 601 180 601C150 601 120 601 90 601C60 601 30 601 15 601L0 601Z" fill="#b03935"></path></svg>