<svg id="visual" viewBox="0 0 900 600" width="900" height="600" xmlns="http://www.w3.org/2000/svg" xmlns:xlink="http://www.w3.org/1999/xlink" version="1.1"><rect x="0" y="0" width="900" height="600" fill="#0b182b"></rect><path d="M0 268L15 267.2C30 266.3 60 264.7 90 266.7C120 268.7 150 274.3 180 265.7C210 257 240 234 270 229.7C300 225.3 330 239.7 360 251.8C390 264 420 274 450 265C480 256 510 228 540 218.7C570 209.3 600 218.7 630 228.2C660 237.7 690 247.3 720 253.5C750 259.7 780 262.3 810 266.3C840 270.3 870 275.7 885 278.3L900 281L900 0L885 0C870 0 840 0 810 0C780 0 750 0 720 0C690 0 660 0 630 0C600 0 570 0 540 0C510 0 480 0 450 0C420 0 390 0 360 0C330 0 300 0 270 0C240 0 210 0 180 0C150 0 120 0 90 0C60 0 30 0 15 0L0 0Z" fill="#fd8a84"></path><path d="M0 225L15 217.8C30 210.7 60 196.3 90 190.7C120 185 150 188 180 192.5C210 197 240 203 270 200C300 197 330 185 360 185.8C390 186.7 420 200.3 450 197.3C480 194.3 510 174.7 540 169.5C570 164.3 600 173.7 630 184.5C660 195.3 690 207.7 720 206.8C750 206 780 192 810 190C840 188 870 198 885 203L900 208L900 0L885 0C870 0 840 0 810 0C780 0 750 0 720 0C690 0 660 0 630 0C600 0 570 0 540 0C510 0 480 0 450 0C420 0 390 0 360 0C330 0 300 0 270 0C240 0 210 0 180 0C150 0 120 0 90 0C60 0 30 0 15 0L0 0Z" fill="#ea766f"></path><path d="M0 126L15 128.7C30 131.3 60 136.7 90 136.8C120 137 150 132 180 128.5C210 125 240 123 270 123.3C300 123.7 330 126.3 360 129C390 131.7 420 134.3 450 134.8C480 135.3 510 133.7 540 139.3C570 145 600 158 630 161C660 164 690 157 720 154.5C750 152 780 154 810 159.2C840 164.3 870 172.7 885 176.8L900 181L900 0L885 0C870 0 840 0 810 0C780 0 750 0 720 0C690 0 660 0 630 0C600 0 570 0 540 0C510 0 480 0 450 0C420 0 390 0 360 0C330 0 300 0 270 0C240 0 210 0 180 0C150 0 120 0 90 0C60 0 30 0 15 0L0 0Z" fill="#d7625b"></path><path d="M0 119L15 117.5C30 116 60 113 90 112.7C120 112.3 150 114.7 180 118.5C210 122.3 240 127.7 270 124.8C300 122 330 111 360 105.3C390 99.7 420 99.3 450 103.3C480 107.3 510 115.7 540 119.7C570 123.7 600 123.3 630 122.7C660 122 690 121 720 116.5C750 112 780 104 810 97.2C840 90.3 870 84.7 885 81.8L900 79L900 0L885 0C870 0 840 0 810 0C780 0 750 0 720 0C690 0 660 0 630 0C600 0 570 0 540 0C510 0 480 0 450 0C420 0 390 0 360 0C330 0 300 0 270 0C240 0 210 0 180 0C150 0 120 0 90 0C60 0 30 0 15 0L0 0Z" fill="#c44e48"></path><path d="M0 56L15 60.2C30 64.3 60 72.7 90 72.2C120 71.7 150 62.3 180 62.3C210 62.3 240 71.7 270 74.2C300 76.7 330 72.3 360 68.5C390 64.7 420 61.3 450 56.2C480 51 510 44 540 44.3C570 44.7 600 52.3 630 54.7C660 57 690 54 720 52.7C750 51.3 780 51.7 810 52.2C840 52.7 870 53.3 885 53.7L900 54L900 0L885 0C870 0 840 0 810 0C780 0 750 0 720 0C690 0 660 0 630 0C600 0 570 0 540 0C510 0 480 0 450 0C420 0 390 0 360 0C330 0 300 0 270 0C240 0 210 0 180 0C150 0 120 0 90 0C60 0 30 0 15 0L0 0Z" fill="#b03935"></path></svg>