<svg id="visual" viewBox="0 0 900 300" width="900" height="300" xmlns="http://www.w3.org/2000/svg" xmlns:xlink="http://www.w3.org/1999/xlink" version="1.1"><rect x="0" y="0" width="900" height="300" fill="#001220"></rect><path d="M0 187L18.8 193.2C37.7 199.3 75.3 211.7 112.8 215.2C150.3 218.7 187.7 213.3 225.2 212.2C262.7 211 300.3 214 337.8 216.8C375.3 219.7 412.7 222.3 450.2 221C487.7 219.7 525.3 214.3 562.8 208.5C600.3 202.7 637.7 196.3 675.2 194.2C712.7 192 750.3 194 787.8 196C825.3 198 862.7 200 881.3 201L900 202L900 301L881.3 301C862.7 301 825.3 301 787.8 301C750.3 301 712.7 301 675.2 301C637.7 301 600.3 301 562.8 301C525.3 301 487.7 301 450.2 301C412.7 301 375.3 301 337.8 301C300.3 301 262.7 301 225.2 301C187.7 301 150.3 301 112.8 301C75.3 301 37.7 301 18.8 301L0 301Z" fill="#ffa096"></path><path d="M0 243L18.8 240.7C37.7 238.3 75.3 233.7 112.8 232.8C150.3 232 187.7 235 225.2 237.7C262.7 240.3 300.3 242.7 337.8 243.5C375.3 244.3 412.7 243.7 450.2 243C487.7 242.3 525.3 241.7 562.8 241.3C600.3 241 637.7 241 675.2 241.2C712.7 241.3 750.3 241.7 787.8 237.2C825.3 232.7 862.7 223.3 881.3 218.7L900 214L900 301L881.3 301C862.7 301 825.3 301 787.8 301C750.3 301 712.7 301 675.2 301C637.7 301 600.3 301 562.8 301C525.3 301 487.7 301 450.2 301C412.7 301 375.3 301 337.8 301C300.3 301 262.7 301 225.2 301C187.7 301 150.3 301 112.8 301C75.3 301 37.7 301 18.8 301L0 301Z" fill="#fc8277"></path><path d="M0 234L18.8 238C37.7 242 75.3 250 112.8 252.8C150.3 255.7 187.7 253.3 225.2 251.7C262.7 250 300.3 249 337.8 248.8C375.3 248.7 412.7 249.3 450.2 248.5C487.7 247.7 525.3 245.3 562.8 244.5C600.3 243.7 637.7 244.3 675.2 242.5C712.7 240.7 750.3 236.3 787.8 234.8C825.3 233.3 862.7 234.7 881.3 235.3L900 236L900 301L881.3 301C862.7 301 825.3 301 787.8 301C750.3 301 712.7 301 675.2 301C637.7 301 600.3 301 562.8 301C525.3 301 487.7 301 450.2 301C412.7 301 375.3 301 337.8 301C300.3 301 262.7 301 225.2 301C187.7 301 150.3 301 112.8 301C75.3 301 37.7 301 18.8 301L0 301Z" fill="#e6665c"></path><path d="M0 281L18.8 279.5C37.7 278 75.3 275 112.8 275C150.3 275 187.7 278 225.2 277.2C262.7 276.3 300.3 271.7 337.8 271.7C375.3 271.7 412.7 276.3 450.2 277C487.7 277.7 525.3 274.3 562.8 273C600.3 271.7 637.7 272.3 675.2 271.8C712.7 271.3 750.3 269.7 787.8 267.7C825.3 265.7 862.7 263.3 881.3 262.2L900 261L900 301L881.3 301C862.7 301 825.3 301 787.8 301C750.3 301 712.7 301 675.2 301C637.7 301 600.3 301 562.8 301C525.3 301 487.7 301 450.2 301C412.7 301 375.3 301 337.8 301C300.3 301 262.7 301 225.2 301C187.7 301 150.3 301 112.8 301C75.3 301 37.7 301 18.8 301L0 301Z" fill="#c04e45"></path></svg>