<svg id="visual" viewBox="0 0 900 300" width="900" height="300" xmlns="http://www.w3.org/2000/svg" xmlns:xlink="http://www.w3.org/1999/xlink" version="1.1"><rect x="0" y="0" width="900" height="300" fill="#001220"></rect><path d="M0 185L18.8 192.7C37.7 200.3 75.3 215.7 112.8 223C150.3 230.3 187.7 229.7 225.2 228.8C262.7 228 300.3 227 337.8 220.8C375.3 214.7 412.7 203.3 450.2 198.8C487.7 194.3 525.3 196.7 562.8 201C600.3 205.3 637.7 211.7 675.2 214.3C712.7 217 750.3 216 787.8 207.5C825.3 199 862.7 183 881.3 175L900 167L900 301L881.3 301C862.7 301 825.3 301 787.8 301C750.3 301 712.7 301 675.2 301C637.7 301 600.3 301 562.8 301C525.3 301 487.7 301 450.2 301C412.7 301 375.3 301 337.8 301C300.3 301 262.7 301 225.2 301C187.7 301 150.3 301 112.8 301C75.3 301 37.7 301 18.8 301L0 301Z" fill="#ffa096"></path><path d="M0 246L18.8 246C37.7 246 75.3 246 112.8 245.7C150.3 245.3 187.7 244.7 225.2 247.5C262.7 250.3 300.3 256.7 337.8 253.5C375.3 250.3 412.7 237.7 450.2 234.7C487.7 231.7 525.3 238.3 562.8 244.7C600.3 251 637.7 257 675.2 255.2C712.7 253.3 750.3 243.7 787.8 238.8C825.3 234 862.7 234 881.3 234L900 234L900 301L881.3 301C862.7 301 825.3 301 787.8 301C750.3 301 712.7 301 675.2 301C637.7 301 600.3 301 562.8 301C525.3 301 487.7 301 450.2 301C412.7 301 375.3 301 337.8 301C300.3 301 262.7 301 225.2 301C187.7 301 150.3 301 112.8 301C75.3 301 37.7 301 18.8 301L0 301Z" fill="#c04e45"></path></svg>